HIERARCHY
ROOT MidHip
{
    OFFSET 0.0 0.0 0.0
    CHANNELS 6 Xposition Yposition Zposition Zrotation Xrotation Yrotation
    JOINT Spine
    {
        OFFSET 0.0 0.0 11.706303656495182
        CHANNELS 3 Zrotation Xrotation Yrotation
        JOINT MidShoulder
        {
            OFFSET 0.0 0.0 11.70630365649518
            CHANNELS 3 Zrotation Xrotation Yrotation
            JOINT Nose
            {
                OFFSET 0.0 0.0 8.518794256889038
                CHANNELS 3 Zrotation Xrotation Yrotation
                End Site
                {
                    OFFSET 0.0 0.0 3.4075177027556145
                }
            }
            JOINT RightShoulder
            {
                OFFSET -6.134747575327156 0.0 0.0
                CHANNELS 3 Zrotation Xrotation Yrotation
                JOINT RightElbow
                {
                    OFFSET -10.703894157897228 0.0 0.0
                    CHANNELS 3 Zrotation Xrotation Yrotation
                    JOINT RightWrist
                    {
                        OFFSET -8.300321992197645 0.0 0.0
                        CHANNELS 3 Zrotation Xrotation Yrotation
                        End Site
                        {
                            OFFSET -2.347685586685915 2.347685586685915 0.0
                        }
                        End Site
                        {
                            OFFSET -3.3201287968790583 0.0 0.0
                        }
                        End Site
                        {
                            OFFSET -2.347685586685915 -2.347685586685915 0.0
                        }
                    }
                }
            }
            JOINT LeftShoulder
            {
                OFFSET 6.134747575327156 0.0 0.0
                CHANNELS 3 Zrotation Xrotation Yrotation
                JOINT LeftElbow
                {
                    OFFSET 10.703894157897228 0.0 0.0
                    CHANNELS 3 Zrotation Xrotation Yrotation
                    JOINT LeftWrist
                    {
                        OFFSET 8.300321992197645 0.0 0.0
                        CHANNELS 3 Zrotation Xrotation Yrotation
                        End Site
                        {
                            OFFSET 2.347685586685915 2.347685586685915 0.0
                        }
                        End Site
                        {
                            OFFSET 3.3201287968790583 0.0 0.0
                        }
                        End Site
                        {
                            OFFSET 2.347685586685915 -2.347685586685915 0.0
                        }
                    }
                }
            }
        }
    }
    JOINT RightHip
    {
        OFFSET -3.739142547531417 0.0 0.0
        CHANNELS 3 Zrotation Xrotation Yrotation
        JOINT RightKnee
        {
            OFFSET 0.0 0.0 -15.313886418209384
            CHANNELS 3 Zrotation Xrotation Yrotation
            JOINT RightAnkle
            {
                OFFSET 0.0 0.0 -16.359880254172076
                CHANNELS 3 Zrotation Xrotation Yrotation
                End Site
                {
                    OFFSET 0.0 4.627272906849989 -4.627272906849989
                }
                End Site
                {
                    OFFSET 0.0 -4.627272906849989 -4.627272906849989
                }
            }
        }
    }
    JOINT LeftHip
    {
        OFFSET 3.739142547531417 0.0 0.0
        CHANNELS 3 Zrotation Xrotation Yrotation
        JOINT LeftKnee
        {
            OFFSET 0.0 0.0 -15.313886418209384
            CHANNELS 3 Zrotation Xrotation Yrotation
            JOINT LeftAnkle
            {
                OFFSET 0.0 0.0 -16.359880254172076
                CHANNELS 3 Zrotation Xrotation Yrotation
                End Site
                {
                    OFFSET 0.0 4.627272906849989 -4.627272906849989
                }
                End Site
                {
                    OFFSET 0.0 -4.627272906849989 -4.627272906849989
                }
            }
        }
    }
}
MOTION
Frames: 14
Frame Time: 0.03333333333333333
-50.0 -50.0 -50.0 0.0 0.0 0.0 0.0 0.0 0.0 0.0 0.0 0.0 0.0 0.0 0.0 0.0 0.0 0.0 0.0 0.0 0.0 0.0 0.0 0.0 0.0 0.0 0.0 0.0 0.0 0.0 0.0 0.0 0.0 0.0 0.0 0.0 0.0 0.0 0.0 0.0 0.0 0.0 0.0 0.0 0.0 0.0 0.0 0.0 0.0 0.0 0.0
-50.0 -50.0 -50.0 0.0 0.0 0.0 0.0 0.0 0.0 0.0 0.0 0.0 0.0 0.0 0.0 0.0 0.0 0.0 0.0 0.0 0.0 0.0 0.0 0.0 0.0 0.0 0.0 0.0 0.0 0.0 0.0 0.0 0.0 0.0 0.0 0.0 0.0 0.0 0.0 0.0 0.0 0.0 0.0 0.0 0.0 0.0 0.0 0.0 0.0 0.0 0.0
3.2578047868471933 37.722551727476116 -3.1448691984878256 68.50213439539866 17.8604804356337 105.25316477025838 0.4335266554999531 -13.297587505509696 -3.346776685526335 21.057037073455888 -7.41634737008311e-15 -5.091681091790537e-15 0.0 0.0 0.0 57.617488153621295 -46.204391184175634 -30.991397103302923 66.20025945849628 0.0 0.0 10.083781839892906 28.545656069880994 -4.857330090662503 -25.630328172720233 -20.891616756612294 68.54578281006079 -123.82465820893268 -2.246212918615251e-15 -4.2089625453607705e-15 -21.66388121940383 4.681487872906097 -178.14314615486475 0.4009871808289821 -12.331229394854033 1.6646131800685589 -0.09141315360651399 23.290708353741973 4.094803144589436 3.1805546814635164e-15 6.361109362927033e-15 -1.7655625192200634e-31 1.042092708856207 -29.60052975650586 -4.481919591303702 -1.6760228011650338 14.20513317601496 -4.105525624934187 0.0 -6.3611093629270335e-15 0.0
3.3137585918873205 37.6746878813749 -3.2261447701693187 68.51883101398558 17.82956031349639 105.4582098660119 0.404166587354747 -13.825330515532448 -3.7196573789355143 20.371261434367813 -1.3646601676581849e-14 -4.011087672477799e-15 -3.1805546814635168e-15 0.0 0.0 49.019850116306834 -44.427148073622675 -41.20737944658185 77.53233260922491 -4.959806869752867e-15 3.9829672534268e-15 35.90381896490137 12.105068338525065 -8.632859017199369 -24.306729593429203 -29.660093580817136 67.1511512612859 -117.31966965096363 -1.3582470184953207e-15 8.271318257650623e-16 -10.62928998048584 -7.070067874321726 178.67673159227672 0.360633047444912 -12.384773824268452 2.0020206484346565 0.14298306714620704 24.00818799315434 2.8188484158674987 -6.361109362927032e-15 1.2722218725854064e-14 1.5902773407317588e-15 0.9370990645298832 -29.70770301965837 -5.6753721053879715 -1.9375173826029977 14.281377103260715 -2.3394053100059096 -3.1805546814635168e-15 0.0 0.0
3.329972557197633 37.65115901978331 -3.303496281936015 68.76335134431925 17.263584032419217 105.29972429999293 0.307882440603521 -13.952725770029762 -4.256769980582489 19.009545812914876 -5.252042495715472e-16 -3.1368915470592036e-15 0.0 0.0 0.0 43.58393357171331 -32.847486267853306 -53.58431236752786 92.16142026972832 4.4123477481469164e-15 -4.582019170250252e-15 31.07961568449416 13.443629438194852 -7.977100487157519 -22.693955953484892 -31.26492343642387 69.95745958861251 -117.11339701622491 -5.271805031659431e-16 2.1863313467934022e-15 -5.830161709204019 -25.594002788738564 177.47432900160894 0.25287000549544575 -11.533362098471102 2.460896005246156 0.5256063286578452 23.714446464534525 1.8366596313910883 0.0 0.0 0.0 0.6955287399383141 -29.303734422318893 -6.584738343976674 -2.024068354980389 14.09728073665052 -0.3110605761722613 3.1805546814635168e-15 0.0 0.0
3.4682436804940453 37.59393534545511 -3.3649313143971433 69.3068155406151 16.123787946714877 105.05107419593766 0.18522233378917902 -13.575006395396315 -4.416907886797263 18.711722936998665 -1.9346525444982876e-14 -3.594763513041408e-17 0.0 0.0 0.0 43.952629732646216 -30.694270691503426 -51.288790621359404 97.34011087553628 7.165017714231837e-15 6.3012597066586166e-15 21.659005147809825 4.940697453960442 -1.9588543692485347 -20.374186999021887 -32.678370080811646 71.96490702838996 -116.77876449962915 1.0415873935561951e-15 -4.375723010559946e-15 -7.115698855992347 1.7831396684031873 -179.777439092979 0.14549361718004922 -10.739818363829977 2.5183972174300555 0.7340896218676446 22.894872344604988 1.56570906970268 0.0 0.0 0.0 0.42220840355391426 -28.828602480815356 -7.322203759547758 -2.0879181097059125 14.192388366902115 0.3047735004533078 -3.1805546814635164e-15 -8.827812596100317e-32 3.1805546814635164e-15
3.5271644565806684 37.51326517174087 -3.2832551410584254 69.29907465439084 16.19389990173148 105.22674729943873 0.1693073424676241 -13.309201377017756 -4.719609387970583 19.10246811092671 -1.3073606292535469e-14 -1.0254734994276398e-15 3.1805546814635168e-15 0.0 0.0 42.07727533758315 -31.908820040120457 -49.77529328813511 101.57748805624243 1.2321791808781594e-14 1.005343964350162e-14 18.164529235894552 10.67292516731972 -3.4772671947563794 -21.872447460946113 -33.199174788345964 71.78892526653391 -114.23486661358592 4.478573129062655e-15 -4.7890580571967174e-15 -10.335405712570912 -3.963302300300061 179.27783013637557 0.13035592325079012 -10.322471008412347 2.3726902413409525 0.6859444143386111 22.62638937151848 0.9877427747581075 -6.3611093629270335e-15 8.827812596100317e-32 -1.5902773407317584e-15 0.396505118041678 -28.986503444339125 -7.903221882442394 -2.407144450316351 15.311741581312104 0.8243200443606983 0.0 0.0 0.0
3.5255071758695493 37.34564226749264 -3.219139569946909 69.15046207240968 15.148374283775832 105.05358228956308 0.20937530276550598 -13.430979599225882 -4.625381926003765 16.568014323601794 -4.582542909614033e-16 -3.1473689149184518e-15 0.0 0.0 0.0 43.97949754994566 -33.558469958422855 -49.81192036336835 103.27018754089164 -8.93571376467977e-15 1.0394441639397607e-15 19.104314099454452 18.025027612948822 -6.117418835845909 -18.74770886232989 -33.28375014841254 72.40755155182399 -116.20512466402188 -4.38088229848095e-15 -1.0196697751798085e-15 -11.616588217326626 0.8824302973078932 -179.8186045901209 0.16424488896336306 -10.610316586440527 2.368814529174568 0.6104908914781166 22.453761524047874 1.105032277479922 3.1805546814635168e-15 4.4139062980501586e-32 1.5902773407317584e-15 0.4934086025077525 -29.36890901352427 -8.134691062341203 -2.575477752866626 15.603523855051112 0.9737130400065725 3.1805546814635168e-15 0.0 0.0
3.519246897052671 37.329899249599585 -3.191033384243816 69.63212682636733 12.443450719895703 104.64929346684374 0.04698024795636427 -13.266155366703051 -4.79480581749719 15.301619792960583 1.2703327636707317e-15 9.456722868180082e-15 0.0 0.0 0.0 45.97453978158236 -31.84776722960763 -52.25353691532476 106.53205827796955 1.255618312957597e-15 -7.000218786656815e-15 20.458641334586062 1.8525952203108895 -0.6909792337688487 -21.452743674882665 -29.957163989225887 70.6105570672481 -118.11552979603046 3.545596273746225e-15 -2.713985368811965e-16 -21.29672311340806 -34.22468191396561 167.63363132293105 0.03728818621211906 -10.599040762244496 2.6305437452804514 0.9599896857742045 21.561805833492897 0.31146807980142954 0.0 0.0 0.0 0.10791007630217155 -28.437194936725245 -9.580055724505693 -2.674246507907406 15.105875006319804 1.4539740489836392 -3.1805546814635168e-15 0.0 0.0
3.485807515032805 37.40101002141174 -3.1633918811853423 69.76788631444558 10.928097990961772 104.22588982578823 -0.06023287228809563 -13.287331627468268 -4.759670370360363 15.830624281799091 -1.3039002089258761e-14 -1.3982853451842558e-15 3.1805546814635168e-15 0.0 0.0 45.87965461079248 -29.555314203785468 -54.317758657865326 109.88471605645893 -2.603521237192273e-15 -1.8269113961186814e-15 19.05022099368689 3.604634653036379 -1.2436941516042015 -22.35668804002877 -30.195841250803998 68.98629408536657 -117.576809597193 -5.440398622988391e-15 3.296327524701389e-15 -18.530408577742424 -26.092701184695 171.61369556697053 -0.05040544109042734 -11.17907824211971 2.556611011647738 1.1174318613935363 21.622701253524422 0.13974884416734862 -3.1805546814635168e-15 -4.4139062980501586e-32 1.5902773407317584e-15 -0.1390142309943332 -28.591981049028163 -10.07471427161047 -2.8096434640355805 15.867772157936015 1.8960363727410041 0.0 0.0 -3.1805546814635168e-15
3.4309079109566043 37.3655815496829 -3.10243466235376 69.54358735778065 9.301001800347123 103.55734152380592 -0.12951536581503006 -13.587025719987396 -4.363501568056029 14.821810161133405 -4.1024174190821634e-16 -3.1539863339868183e-15 3.1805546814635168e-15 0.0 0.0 43.04417428627511 -27.969637905211975 -57.58559359745283 114.48626307934532 -7.67074796313601e-16 7.0704481234047614e-15 12.707104216055269 10.576296420490742 -2.369976304834503 -20.20726984304404 -30.801962888596396 69.55428094312025 -115.00166830026357 -4.2721793289064663e-16 -6.70619372615988e-16 -20.136288127642324 -3.778364538446493 178.61587403248413 -0.11250998084471975 -11.857169518489615 2.8166483951915215 1.2908611854477994 20.968424527997396 0.20823617066574737 -3.1805546814635168e-15 0.0 0.0 -0.304480631425019 -29.604476907432197 -10.884412967636015 -3.2269858951195034 17.26196896605235 3.271814233443296 3.1805546814635168e-15 0.0 0.0
3.4557910794814406 37.424438712586316 -3.125566235036925 69.27506256680729 7.892305699497455 102.85067278544228 -0.050240606739221344 -14.073415340033717 -4.045904760662443 13.926041955000974 -5.928619054588101e-15 3.928245984465884e-15 0.0 0.0 0.0 40.74620965998533 -29.35476074102062 -59.58362901658324 115.23232095686137 5.371823424890678e-15 3.406937836080045e-15 16.936826719181123 18.185871213969794 -5.4292308965659535 -19.22841843007693 -31.790152632786338 68.52978136967234 -116.6820241400303 -5.189464773838368e-16 2.188300389457684e-15 -18.995181891173015 -6.2265820333465856 177.86181115755318 -0.04518622329780851 -12.705968182202387 3.2506207672984098 1.352561222720358 21.34795221130217 0.047500754197153786 -3.1805546814635168e-15 0.0 0.0 -0.11416159501587865 -29.6675960300835 -10.732390415026368 -3.371966596671757 17.604195966199033 3.3927191890611432 3.1805546814635168e-15 0.0 0.0
3.537082641212027 37.45263869545542 -3.1145580323497795 69.37262223115793 7.3812067821824545 102.5769189889571 -0.1279602762893643 -14.245124167111126 -4.024941485040796 13.02833548206375 -1.3000912371260833e-14 -1.7166988393566398e-15 -3.1805546814635168e-15 0.0 0.0 40.096286393135756 -26.985376617626603 -61.88460211357693 117.55247304596463 4.862064793799865e-15 1.0385922732430914e-14 19.704109249714904 10.278406539208557 -3.656350777622762 -17.851340356058483 -31.244946048736015 68.94823136929156 -116.71771875593338 -1.5111969520091149e-15 -9.367557300569098e-16 -19.118589966051992 -1.3899059256663886 179.518255430654 -0.1064803143464477 -11.928917078377452 3.6357411010795015 1.4801784795528548 19.592194349679303 -0.9585998973166352 0.0 0.0 0.0 -0.2777049929035236 -28.853595554758602 -11.229750811769227 -3.3978305152304844 17.48689207576362 3.245048233930276 -3.1805546814635176e-15 0.0 0.0
3.6106370263134333 37.51695655835914 -3.1715305681190187 69.8145676676549 5.50495287822768 102.16865419842014 -0.3320226047384843 -14.030374910580672 -4.386599064604261 11.890156676196368 5.338618166043721e-15 -1.014919805404946e-14 0.0 0.0 0.0 42.70322241419465 -25.769699405864227 -62.36236329257949 122.09532165862373 -2.4868170395193808e-15 -8.645412984131645e-15 14.699874005121746 35.30592435587108 -8.6214584552053 -18.297793562849 -31.61527330932347 65.19956468942515 -116.18221914042138 -2.2224651870158438e-15 -6.5779455954905125e-15 -20.768096175395318 -4.629405787693461 178.246859729587 -0.2820642730677395 -11.98545323027791 3.7124385532418427 1.7514917042731235 19.007489933458906 -1.054656503815937 0.0 0.0 0.0 -0.6827534391674953 -27.196523762642503 -11.692279989056953 -2.9603879245502753 16.017243820060248 3.240521083246379 -3.1805546814635164e-15 8.827812596100317e-32 -3.1805546814635164e-15
